<svg xmlns="http://www.w3.org/2000/svg" viewBox="0 0 200 200"><title>cutom_landscape</title><path d="M39.74,186.62q0,.45-.48.45H36.74a.8.8,0,0,1-.58-.17,1.26,1.26,0,0,1-.3-.46l-.9-2.62H29.4l-.91,2.71a1,1,0,0,1-.21.38.61.61,0,0,1-.46.16H25.25a.33.33,0,0,1-.38-.25.41.41,0,0,1,0-.11.5.5,0,0,1,.05-.27L30.26,172a1.6,1.6,0,0,1,.28-.4.72.72,0,0,1,.49-.16h2.32a.75.75,0,0,1,.81.5l5.5,14.35A1.3,1.3,0,0,1,39.74,186.62ZM34,181.12l-1.42-4.44-.41-1.31h0c-.06.21-.12.43-.19.65l-.22.68-1.42,4.42Z" style="fill:#00aae1"/><path d="M62.22,187.07a1.69,1.69,0,0,1-.58-.1,1,1,0,0,1-.43-.39l-3.13-4.8h-1.4v4.67a.72.72,0,0,1-.13.45.56.56,0,0,1-.47.17H53.73a.57.57,0,0,1-.63-.65V172.2a.93.93,0,0,1,.15-.61.8.8,0,0,1,.6-.16h3.43c.48,0,1,0,1.49,0a8.68,8.68,0,0,1,1.53.22,6.45,6.45,0,0,1,1.41.52,4.16,4.16,0,0,1,1.18.9,4.47,4.47,0,0,1,.92,1.56,5.74,5.74,0,0,1-.36,4.5,4.6,4.6,0,0,1-2,1.91v0l3.69,5.28a.73.73,0,0,1,.14.38.25.25,0,0,1-.12.23.41.41,0,0,1-.24.06Zm-1.75-10.52a2.59,2.59,0,0,0-.22-1.13,1.81,1.81,0,0,0-.6-.74,2.31,2.31,0,0,0-.93-.42,4.86,4.86,0,0,0-1.14-.13H56.7v5h1.13a2.8,2.8,0,0,0,1.94-.64,2.44,2.44,0,0,0,.7-1.91Z" style="fill:#00aae1"/><path d="M93.21,187.07c-.3,0-.5-.08-.58-.23a1.51,1.51,0,0,1-.17-.7l-.24-7.73h0l-3.4,8.16a.68.68,0,0,1-.34.42,1.22,1.22,0,0,1-.43.08h-.83a1.33,1.33,0,0,1-.52-.09.93.93,0,0,1-.38-.43l-3.9-8.14h-.05l-.13,8c0,.32-.07.51-.2.59a1.24,1.24,0,0,1-.57.11H79.58c-.53,0-.77-.24-.77-.72l.61-14.2a.76.76,0,0,1,.2-.56.75.75,0,0,1,.5-.16h1.62a1,1,0,0,1,.58.15,1.28,1.28,0,0,1,.34.46l5,10.18h.05L92.18,172a1.17,1.17,0,0,1,.34-.45.94.94,0,0,1,.59-.16h1.57a.65.65,0,0,1,.47.13.58.58,0,0,1,.16.43l.74,14.38c0,.47-.17.7-.6.7Z" style="fill:#00aae1"/><path d="M124.12,186.62c0,.3-.15.45-.47.45h-2.52a.84.84,0,0,1-.59-.17,1.24,1.24,0,0,1-.29-.46l-.9-2.62h-5.57l-.9,2.71a1,1,0,0,1-.21.38.61.61,0,0,1-.45.16h-2.57a.33.33,0,0,1-.36-.27v-.09a.84.84,0,0,1,0-.27L114.68,172a1.38,1.38,0,0,1,.28-.4.72.72,0,0,1,.49-.16h2.32a.76.76,0,0,1,.81.5l5.48,14.35A1,1,0,0,1,124.12,186.62Zm-5.73-5.5L117,176.68l-.41-1.31h0c-.06.21-.13.43-.19.65l-.22.68-1.42,4.42Z" style="fill:#00aae1"/><path d="M151.07,179.3a8.72,8.72,0,0,1-.64,3.49,6.75,6.75,0,0,1-1.74,2.42,7.05,7.05,0,0,1-2.61,1.41,10.88,10.88,0,0,1-3.21.45h-4.58a1,1,0,0,1-.53-.12c-.13-.09-.19-.28-.19-.58V172.15a.83.83,0,0,1,.14-.55.76.76,0,0,1,.6-.17h3.56a17.32,17.32,0,0,1,3.8.38,7.39,7.39,0,0,1,2.9,1.3,5.91,5.91,0,0,1,1.86,2.42A9.34,9.34,0,0,1,151.07,179.3Zm-3.82,0a4.72,4.72,0,0,0-1.23-3.64,5.26,5.26,0,0,0-3.63-1.11h-1.26V184h1.6a6.47,6.47,0,0,0,1.64-.21,4,4,0,0,0,1.46-.76,3.83,3.83,0,0,0,1-1.46,6.07,6.07,0,0,0,.39-2.31Z" style="fill:#00aae1"/><path d="M177.84,186.62c0,.3-.15.45-.47.45h-2.51a.84.84,0,0,1-.59-.17,1.41,1.41,0,0,1-.3-.46l-.9-2.62H167.5l-.9,2.71a1,1,0,0,1-.22.38.59.59,0,0,1-.46.16h-2.56a.33.33,0,0,1-.37-.27v-.09a.62.62,0,0,1,0-.27L168.39,172a1.21,1.21,0,0,1,.28-.4.7.7,0,0,1,.48-.16h2.32a.76.76,0,0,1,.82.5l5.47,14.35A1.3,1.3,0,0,1,177.84,186.62Zm-5.73-5.5-1.42-4.44-.42-1.31h0c-.06.21-.13.43-.19.65s-.15.44-.22.68l-1.42,4.42Z" style="fill:#00aae1"/><polygon points="99.86 40.15 75.35 69.88 60.23 74.29 100.05 12.92 139.87 74.29 124.75 69.88 99.86 40.15"/><polygon points="56.44 107.27 31.93 136.99 16.81 141.41 56.63 80.03 96.45 141.41 81.33 136.99 56.44 107.27"/><polygon points="143.18 107.27 118.67 136.99 103.55 141.41 143.37 80.03 183.19 141.41 168.07 136.99 143.18 107.27"/><path d="M99.86,56.12,81.93,73.2s7.32,14.38,17.93,19.44c10.61-5.06,18-19.44,18-19.44Z" style="fill:#383838"/><path d="M56.63,123.15l-18,17.08s7.32,14.38,18,19.44c10.61-5.06,17.95-19.44,17.95-19.44Z" style="fill:#383838"/><path d="M143.37,123.15l-18,17.08s7.32,14.38,18,19.44c10.61-5.06,17.95-19.44,17.95-19.44Z" style="fill:#383838"/></svg>