<svg xmlns="http://www.w3.org/2000/svg" viewBox="0 0 200 200"><title>cutom_landscape</title><rect x="10" y="10" width="180" height="180" rx="8" ry="8" style="fill:#fa4024"/><path d="M17.19,97.45h0A12.82,12.82,0,0,1,30.28,84.58c7.65,0,13.1,5.68,13.1,12.75v.12a12.72,12.72,0,0,1-13.1,12.75C22.75,110.08,17.19,104.4,17.19,97.45Zm20.63,0h0a7.6,7.6,0,0,0-7.54-7.88,7.37,7.37,0,0,0-7.41,7.65v.11a7.5,7.5,0,0,0,7.53,7.77A7.38,7.38,0,0,0,37.82,97.45Z" style="fill:#fff"/><path d="M47.79,90.84h5.33v2.67a7,7,0,0,1,5.91-3c4.4,0,8.58,3.47,8.58,9.73v.12c0,6.26-4.18,9.73-8.58,9.73a7.23,7.23,0,0,1-5.91-2.78v8.12H47.79Zm14.48,9.39h0c0-3.24-2.08-5.33-4.63-5.33S53,97,53,100.12v.11c0,3.13,2.09,5.22,4.64,5.22S62.27,103.48,62.27,100.23Z" style="fill:#fff"/><path d="M70.62,100.35h0c0-5.45,3.82-10,9.39-10,6.26,0,9.15,4.87,9.15,10.32a6,6,0,0,1-.11,1.39H76a4.42,4.42,0,0,0,4.64,3.71,6.19,6.19,0,0,0,4.63-2l3,2.67A9.37,9.37,0,0,1,80.47,110,9.25,9.25,0,0,1,70.62,100.35ZM84,98.73c-.35-2.44-1.74-4.06-3.94-4.06S76.3,96.29,76,98.73Z" style="fill:#fff"/><path d="M93.22,90.84h5.33v2.67a6.61,6.61,0,0,1,5.56-3c4.06,0,6.38,2.66,6.38,7.07v12.28h-5.33V99.3c0-2.55-1.16-3.82-3.25-3.82s-3.36,1.27-3.36,3.82v10.55H93.22Z" style="fill:#fff"/><path d="M115.7,85.05h10.09c5.91,0,9.5,3.48,9.5,8.58v.11c0,5.68-4.4,8.69-10,8.69h-4.17v7.42H115.7Zm9.74,12.4c2.67,0,4.29-1.62,4.29-3.71v-.11c0-2.44-1.74-3.71-4.41-3.71h-4.17v7.53Z" style="fill:#fff"/><path d="M139.23,85.05h11.48a9.14,9.14,0,0,1,6.49,2.2,5.69,5.69,0,0,1,1.74,4.17v.12a5.86,5.86,0,0,1-3.25,5.33c2.9,1,4.64,2.78,4.64,6V103c0,4.52-3.71,6.73-9.27,6.73H139.35V85.05Zm14.26,7.3c0-1.62-1.28-2.55-3.59-2.55h-5.34V95h5c2.43,0,3.94-.82,3.94-2.67Zm-2.67,7.19h-6.26V105h6.5c2.43,0,3.82-.81,3.82-2.66v-.12C154.88,100.58,153.61,99.54,150.82,99.54Z" style="fill:#fff"/><path d="M163,106.14l3.25-3.82a11.18,11.18,0,0,0,7.42,3c2.2,0,3.59-.93,3.59-2.32v-.11c0-1.39-.81-2.09-5-3.13-5-1.28-8.23-2.67-8.23-7.54v-.11c0-4.52,3.59-7.42,8.69-7.42a14.37,14.37,0,0,1,9.16,3.13l-2.79,4.06a11.52,11.52,0,0,0-6.37-2.44c-2.09,0-3.13.93-3.13,2.21v.11c0,1.62,1,2.2,5.33,3.25,5,1.27,7.88,3.13,7.88,7.41h0c0,4.87-3.71,7.65-9,7.65A16.08,16.08,0,0,1,163,106.14Z" style="fill:#fff"/></svg>