<svg xmlns="http://www.w3.org/2000/svg" viewBox="0 0 200 200"><title>cutom_landscape</title><path d="M100.15,81.43h69.09c0,39-30.93,70.67-69.09,70.67Z" style="fill:#5a0046;opacity:0.744648993015289;isolation:isolate"/><path d="M102,155.08l1.85-.07,1.84-.12,1.82-.17,3.61-.47,3.55-.64,3.49-.83,3.42-1,3.35-1.16,3.28-1.32,3.19-1.47,3.11-1.63,3-1.78,2.93-1.91,2.82-2.06,2.73-2.18,2.61-2.32,2.51-2.44,2.38-2.56,2.27-2.67,2.14-2.79,2-2.88,1.87-3,1.74-3.09,1.59-3.17,1.44-3.27,1.29-3.34,1.14-3.43,1-3.49.8-3.56.64-3.63.46-3.69.27-3.74.1-3.79-.06-.6-.18-.57-.28-.51-.36-.44-.45-.37-.51-.27-.56-.18-.61-.06H100.15l-.61.06-.56.18-.51.27-.44.37-.37.44-.28.51-.17.57-.06.6V152.1l.06.61.17.56.28.51.37.44.44.37.51.28.56.17.61.06Zm-1.86-73.65h69.09l-.08,3.64-.27,3.59-.44,3.53-.61,3.48-.77,3.42-.93,3.36-1.09,3.28-1.24,3.21-1.38,3.13-1.52,3.05-1.67,3-1.8,2.86-1.92,2.77-2.05,2.67L151.29,129,149,131.4l-2.4,2.34L144.1,136l-2.61,2.1-2.71,2-2.8,1.84-2.9,1.7-3,1.56L127,146.55l-3.13,1.26-3.21,1.11-3.28,1-3.35.78-3.4.63-3.46.45-3.51.27-3.55.09Z" style="fill:#fff"/><path d="M100.15,81.43V10.76c38.16,0,69.09,31.64,69.09,70.67Z" style="fill:#ad8100;opacity:0.763276994228363;isolation:isolate"/><path d="M169.85,84.37l.56-.17.51-.28.45-.36.36-.45.28-.51.18-.56.06-.61-.1-3.79-.27-3.74-.46-3.68-.64-3.63L170,63l-1-3.5-1.14-3.42-1.29-3.35-1.44-3.26-1.59-3.18-1.74-3.08-1.87-3-2-2.89-2.14-2.78-2.27-2.68-2.38-2.56-2.51-2.44L146,24.59l-2.73-2.19-2.82-2-2.93-1.92-3-1.77L131.41,15l-3.19-1.48-3.28-1.32-3.35-1.16-3.42-1-3.49-.82-3.55-.65-3.61-.47L105.7,8l-1.84-.12L102,7.79l-1.86,0-.61.06L99,8l-.51.27L98,8.64l-.37.45-.28.51-.17.56-.06.6V81.43l.06.61.17.56.28.51.37.45.44.36.51.28.56.17.61.06h69.09Zm-69.7-2.94V10.76l3.55.1,3.51.27,3.46.45,3.4.62,3.35.79,3.28.95,3.21,1.11L127,16.32l3.06,1.41,3,1.56L136,21l2.8,1.84,2.71,2,2.61,2.1,2.51,2.22,2.4,2.34,2.28,2.46,2.18,2.56,2.05,2.67,1.92,2.77,1.8,2.87,1.67,3,1.52,3,1.38,3.13,1.24,3.21,1.09,3.29.93,3.35.77,3.42.61,3.48.44,3.54.27,3.59.08,3.63Z" style="fill:#fff"/><path d="M100.15,81.43V152.1c-38.16,0-69.1-31.64-69.1-70.67Z" style="fill:#001563;opacity:0.76433801651001;isolation:isolate"/><path d="M100.75,155l.57-.17.51-.28.44-.37.37-.44.27-.51.18-.56.06-.61V81.43l-.06-.6-.18-.57-.27-.51-.37-.44-.44-.37-.51-.27-.57-.18-.6-.06H31.05l-.6.06-.57.18-.51.27-.44.37-.37.44-.28.51-.17.57-.06.6.09,3.79L28.42,89l.46,3.69.63,3.63.81,3.56,1,3.49,1.13,3.43,1.29,3.34,1.45,3.27,1.59,3.17,1.73,3.09,1.88,3,2,2.88,2.14,2.79L46.77,131l2.39,2.56,2.5,2.44,2.62,2.32L57,140.46l2.83,2.06,2.93,1.91,3,1.78,3.11,1.63,3.2,1.47,3.27,1.32,3.35,1.16,3.42,1,3.49.83,3.55.64,3.61.47,1.83.17,1.84.12,1.85.07,1.86,0Zm-4.16-3-3.51-.27-3.45-.45-3.41-.63-3.34-.78-3.28-1-3.21-1.11-3.14-1.26-3.06-1.42-3-1.56-2.89-1.7L61.52,140l-2.71-2L56.2,136l-2.51-2.22-2.4-2.34L49,129l-2.17-2.57-2-2.67-1.93-2.77-1.79-2.86-1.67-3-1.52-3.05-1.39-3.13-1.24-3.21-1.08-3.28-.93-3.36-.77-3.42-.61-3.48-.44-3.53-.27-3.59-.09-3.64h69.1V152.1Z" style="fill:#fff"/><path d="M100.15,81.43H31.05c0-39,30.94-70.67,69.1-70.67Z" style="fill:#005c0c;opacity:0.789942979812622;isolation:isolate"/><path d="M100.75,84.37l.57-.17.51-.28.44-.36.37-.45.27-.51.18-.56.06-.61V10.76l-.06-.6-.18-.56-.27-.51-.37-.45-.44-.37L101.32,8l-.57-.18-.6-.06-1.86,0-1.85.07L94.6,8l-1.83.16-3.61.47-3.55.65-3.49.82-3.42,1-3.35,1.16-3.27,1.32L68.88,15l-3.11,1.63-3,1.77-2.93,1.92L57,22.4l-2.72,2.19L51.66,26.9l-2.5,2.44L46.77,31.9l-2.26,2.68-2.14,2.78-2,2.89-1.88,3-1.73,3.08L35.16,49.5l-1.45,3.26-1.29,3.35-1.13,3.42-1,3.5-.81,3.56-.63,3.63-.46,3.68-.28,3.74-.09,3.79.06.61.17.56.28.51.37.45.44.36.51.28.57.17.6.06h69.1Zm-69.7-2.94.09-3.63.27-3.59.44-3.54.61-3.48.77-3.42.93-3.35,1.08-3.29,1.24-3.21,1.39-3.13,1.52-3,1.67-3,1.79-2.87,1.93-2.77,2-2.67L49,33.92l2.29-2.46,2.4-2.34L56.2,26.9l2.61-2.1,2.71-2L64.32,21l2.89-1.7,3-1.56,3.06-1.41,3.14-1.27,3.21-1.11L82.88,13l3.34-.79,3.41-.62,3.45-.45,3.51-.27,3.56-.1V81.43Z" style="fill:#fff"/><path d="M155.05,81.43c0-31-24.58-56.12-54.9-56.12s-54.9,25.13-54.9,56.12,24.58,56.12,54.9,56.12S155.05,112.43,155.05,81.43Z" style="fill:#fff"/><path d="M103.73,43.1c2.53,0,5.1.12,7.69.37s5.28.59,8,1,5.31,1,7.65,1.56a56.69,56.69,0,0,1,6.42,2l-8.18,23.41a30.36,30.36,0,0,0-8.56-8,18.84,18.84,0,0,0-9.88-2.85,6.46,6.46,0,0,0-4.43,1.25A4,4,0,0,0,101.1,65q0,1.74,2.66,3.35A51.56,51.56,0,0,0,112,72q14.46,5.31,18.69,10.57a19.73,19.73,0,0,1,4.14,12.75q0,11.82-9,18.13t-26.75,6.3a117.44,117.44,0,0,1-17.57-1.26,79,79,0,0,1-16.35-4.34l8-24.82A27.36,27.36,0,0,0,81.78,98a18.75,18.75,0,0,0,10,3.26,6.45,6.45,0,0,0,4-1.19,3.64,3.64,0,0,0,1.58-3,4.52,4.52,0,0,0-2.22-3.72,32.16,32.16,0,0,0-6.88-3.38q-11.49-4.34-15.77-9.4A18.92,18.92,0,0,1,68.2,68q0-12.4,9-18.66T103.73,43.1Z"/><path d="M122.6,179.25c-.31.06-.64.11-1,.15s-.69.09-1,.15a7.77,7.77,0,0,0-1,.24,2.74,2.74,0,0,0-.82.41,1.85,1.85,0,0,0-.56.65,2,2,0,0,0-.22,1,2,2,0,0,0,.22,1,1.62,1.62,0,0,0,.57.62,2.54,2.54,0,0,0,.85.32,5.55,5.55,0,0,0,1,.09,3.78,3.78,0,0,0,2-.43,2.85,2.85,0,0,0,1-1,3.36,3.36,0,0,0,.41-1.2,8.66,8.66,0,0,0,.08-1v-1.61a2,2,0,0,1-.69.38A8.61,8.61,0,0,1,122.6,179.25Z" style="fill:none"/><path d="M80.21,174.9a3.19,3.19,0,0,0-1.13-1.06,3.55,3.55,0,0,0-1.76-.39,3.18,3.18,0,0,0-1.56.36,3.13,3.13,0,0,0-1.09,1,4,4,0,0,0-.64,1.42,7.18,7.18,0,0,0-.2,1.69,8.55,8.55,0,0,0,.17,1.68,4.44,4.44,0,0,0,.58,1.51,3.38,3.38,0,0,0,1.07,1.09,3.11,3.11,0,0,0,1.67.43,3.39,3.39,0,0,0,2.77-1.34,4.45,4.45,0,0,0,.68-1.38,5.84,5.84,0,0,0,.23-1.63,8.29,8.29,0,0,0-.19-1.83A4.67,4.67,0,0,0,80.21,174.9Z" style="fill:none"/><path d="M39.19,175a7.74,7.74,0,0,0-2.14-1c-.72-.21-1.28-.36-1.68-.44l-3.3-.85a12.29,12.29,0,0,1-2-.67,2.17,2.17,0,0,1-1-.73,1.87,1.87,0,0,1-.25-1,2,2,0,0,1,.31-1.15,2.54,2.54,0,0,1,.77-.76A2.88,2.88,0,0,1,31,168a5.62,5.62,0,0,1,1.15-.12,8.29,8.29,0,0,1,1.63.15,4,4,0,0,1,1.32.52,2.69,2.69,0,0,1,.92,1,3.88,3.88,0,0,1,.41,1.61h4.62a6.58,6.58,0,0,0-.72-3.2,6.11,6.11,0,0,0-1.93-2.17,7.92,7.92,0,0,0-2.77-1.23,13.49,13.49,0,0,0-3.27-.38,11.2,11.2,0,0,0-2.91.39,8,8,0,0,0-2.61,1.22,6.52,6.52,0,0,0-1.87,2,5.74,5.74,0,0,0-.71,2.9,5.24,5.24,0,0,0,.56,2.54A5.18,5.18,0,0,0,26.32,175a8,8,0,0,0,2.07,1.14,19,19,0,0,0,2.36.75q1.18.33,2.34.6a16.45,16.45,0,0,1,2.07.64,4.6,4.6,0,0,1,1.47.91,1.93,1.93,0,0,1,.56,1.43,2.09,2.09,0,0,1-.42,1.35,3.17,3.17,0,0,1-1.07.84,4.76,4.76,0,0,1-1.36.4,8.41,8.41,0,0,1-1.37.11,6.88,6.88,0,0,1-1.82-.23,4.47,4.47,0,0,1-1.53-.69A3.48,3.48,0,0,1,28.57,181a4.06,4.06,0,0,1-.4-1.86H23.56a7.1,7.1,0,0,0,.73,3.46,6.64,6.64,0,0,0,2.05,2.4,8.63,8.63,0,0,0,3,1.38,14.58,14.58,0,0,0,7.38-.07,8.51,8.51,0,0,0,2.82-1.44,6.08,6.08,0,0,0,1.72-2.2,6.73,6.73,0,0,0,.57-2.77,5.29,5.29,0,0,0-.77-3A6.4,6.4,0,0,0,39.19,175Z"/><rect x="44.29" y="170.62" width="4.31" height="15.7"/><path d="M65.57,172a4.16,4.16,0,0,0-1.74-1.3A7.42,7.42,0,0,0,61,170.2a6.21,6.21,0,0,0-2.67.62,5,5,0,0,0-2.13,2H56.1v-2.19H52v15.7h4.32v-8.23a5.75,5.75,0,0,1,.79-3.44,3,3,0,0,1,2.55-1.05,2.35,2.35,0,0,1,2.15,1,5.47,5.47,0,0,1,.61,2.9v8.87h4.31v-9.66a12.73,12.73,0,0,0-.26-2.65A5,5,0,0,0,65.57,172Z"/><path d="M81,172.72h-.06a4.68,4.68,0,0,0-2-1.94,6,6,0,0,0-2.72-.58,6.29,6.29,0,0,0-2.9.64,6.18,6.18,0,0,0-2.11,1.71A7.56,7.56,0,0,0,70,175a9.9,9.9,0,0,0-.44,2.93A12.08,12.08,0,0,0,69.9,181a7,7,0,0,0,1.2,2.52,5.71,5.71,0,0,0,2.09,1.7,6.82,6.82,0,0,0,3,.62,6.38,6.38,0,0,0,2.72-.59,4.28,4.28,0,0,0,2-1.84H81v2.07a4.27,4.27,0,0,1-.81,2.76,3.11,3.11,0,0,1-2.65,1.09,4.21,4.21,0,0,1-2-.47,2.42,2.42,0,0,1-1.18-1.68H70a4.57,4.57,0,0,0,.74,2.29,5.31,5.31,0,0,0,1.64,1.56,7.33,7.33,0,0,0,2.19.9,10.14,10.14,0,0,0,2.35.29,10.52,10.52,0,0,0,4.31-.73,6.69,6.69,0,0,0,2.46-1.78,5.32,5.32,0,0,0,1.11-2.26,10.6,10.6,0,0,0,.25-2.15v-14.7H81Zm-.23,7.18a4.45,4.45,0,0,1-.68,1.38,3.39,3.39,0,0,1-2.77,1.34,3.11,3.11,0,0,1-1.67-.43,3.38,3.38,0,0,1-1.07-1.09,4.44,4.44,0,0,1-.58-1.51,8.55,8.55,0,0,1-.17-1.68,7.18,7.18,0,0,1,.2-1.69,4,4,0,0,1,.64-1.42,3.13,3.13,0,0,1,1.09-1,3.18,3.18,0,0,1,1.56-.36,3.55,3.55,0,0,1,1.76.39,3.19,3.19,0,0,1,1.13,1.06,4.67,4.67,0,0,1,.6,1.54,8.29,8.29,0,0,1,.19,1.83A5.84,5.84,0,0,1,80.77,179.9Z"/><path d="M99,178.85a5.81,5.81,0,0,1-.79,3.45,3,3,0,0,1-2.55,1,2.38,2.38,0,0,1-2.16-1,5.58,5.58,0,0,1-.6-2.9v-8.87H88.56v9.66a12.76,12.76,0,0,0,.25,2.65,5.14,5.14,0,0,0,.9,2,4.21,4.21,0,0,0,1.74,1.29,7.65,7.65,0,0,0,2.84.45,6.33,6.33,0,0,0,2.67-.6,4.93,4.93,0,0,0,2.13-2h.09v2.19h4.1v-15.7H99Z"/><rect x="106.68" y="164.64" width="4.31" height="21.68"/><path d="M128.48,182.83v-8.17a3.81,3.81,0,0,0-.64-2.29A4.32,4.32,0,0,0,126.2,171a7.16,7.16,0,0,0-2.22-.65,16.33,16.33,0,0,0-2.4-.17,12.57,12.57,0,0,0-2.59.26,7.38,7.38,0,0,0-2.32.86,5.13,5.13,0,0,0-1.7,1.61,5,5,0,0,0-.76,2.52h4.31a2.41,2.41,0,0,1,.85-1.82,3.21,3.21,0,0,1,2-.55,7.2,7.2,0,0,1,1.08.08,2.41,2.41,0,0,1,.88.3,1.71,1.71,0,0,1,.61.64,2.29,2.29,0,0,1,.23,1.11,1.17,1.17,0,0,1-.4,1,2.93,2.93,0,0,1-1.15.54A11.91,11.91,0,0,1,121,177c-.63.06-1.27.14-1.91.24a17.88,17.88,0,0,0-1.93.41,5.2,5.2,0,0,0-1.7.78,3.9,3.9,0,0,0-1.22,1.38,4.6,4.6,0,0,0-.47,2.2,4.93,4.93,0,0,0,.41,2.09,3.93,3.93,0,0,0,1.14,1.46,4.85,4.85,0,0,0,1.7.85,7.84,7.84,0,0,0,2.1.27,9.83,9.83,0,0,0,2.85-.42,5.6,5.6,0,0,0,2.43-1.49,6.48,6.48,0,0,0,.1.77,5.89,5.89,0,0,0,.2.75H129a3.69,3.69,0,0,1-.42-1.46A16.54,16.54,0,0,1,128.48,182.83Zm-4.31-2.58a8.66,8.66,0,0,1-.08,1,3.36,3.36,0,0,1-.41,1.2,2.85,2.85,0,0,1-1,1,3.78,3.78,0,0,1-2,.43,5.55,5.55,0,0,1-1-.09,2.54,2.54,0,0,1-.85-.32,1.62,1.62,0,0,1-.57-.62,2,2,0,0,1-.22-1,2,2,0,0,1,.22-1,1.85,1.85,0,0,1,.56-.65,2.74,2.74,0,0,1,.82-.41,7.77,7.77,0,0,1,1-.24c.35-.06.69-.11,1-.15s.67-.09,1-.15a8.61,8.61,0,0,0,.88-.23,2,2,0,0,0,.69-.38Z"/><path d="M139.41,170.44a5.7,5.7,0,0,0-1.43.68,5.45,5.45,0,0,0-2,2.42h-.06v-2.92h-4.09v15.7h4.31v-7.07a8.84,8.84,0,0,1,.21-2,4.27,4.27,0,0,1,.71-1.59,3.5,3.5,0,0,1,1.32-1.08,4.68,4.68,0,0,1,2-.39,7.88,7.88,0,0,1,.82,0c.28,0,.52.07.72.11v-4a3.33,3.33,0,0,0-.94-.15A5.15,5.15,0,0,0,139.41,170.44Z"/><rect x="143.75" y="170.62" width="4.31" height="15.7"/><path d="M156.92,165.92h-4.31v4.7H150v2.89h2.61v9.26a3.93,3.93,0,0,0,.4,1.91,2.75,2.75,0,0,0,1.07,1.12,4.34,4.34,0,0,0,1.58.53,12.76,12.76,0,0,0,1.9.14l1.3,0a10.5,10.5,0,0,0,1.22-.12V183a6.17,6.17,0,0,1-.64.09c-.22,0-.45,0-.7,0a1.46,1.46,0,0,1-1.82-1.82v-7.77h3.16v-2.89h-3.16Z"/><path d="M172,170.62l-3.43,10.75h-.06l-3.55-10.75h-4.59l5.5,14.73a2.58,2.58,0,0,1,.18,1,2.16,2.16,0,0,1-.41,1.27,1.65,1.65,0,0,1-1.26.67,9.12,9.12,0,0,1-1.28,0l-1.24-.12v3.55l1.32.11c.44,0,.88,0,1.32,0a6.21,6.21,0,0,0,3.46-.82,5.22,5.22,0,0,0,1.94-2.73l6.56-17.64Z"/><rect x="44.29" y="164.64" width="4.31" height="3.55"/><rect x="143.75" y="164.64" width="4.31" height="3.55"/></svg>