<svg xmlns="http://www.w3.org/2000/svg" xmlns:xlink="http://www.w3.org/1999/xlink" viewBox="0 0 200 200"><defs><linearGradient id="a" x1="100" y1="126.91" x2="100" y2="38.36" gradientUnits="userSpaceOnUse"><stop offset="0" stop-color="#eb5520"/><stop offset="0.25" stop-color="#eb511f"/><stop offset="0.5" stop-color="#eb441d"/><stop offset="0.76" stop-color="#eb301a"/><stop offset="1" stop-color="#eb1616"/></linearGradient></defs><title>cutom_landscape</title><path d="M85.37,62.69,73.73,51a.59.59,0,0,1,0-.85L85.37,38.54a.6.6,0,0,1,.86,0L97.87,50.19a.59.59,0,0,1,0,.85L86.23,62.69A.62.62,0,0,1,85.37,62.69Zm-3.08,1.69L72,54.13a.6.6,0,0,0-.86,0L60.92,64.38a.6.6,0,0,0,0,.86L71.18,75.5a.61.61,0,0,0,.85,0L82.29,65.24A.62.62,0,0,0,82.29,64.38Zm28.39,0L100.43,54.13a.6.6,0,0,0-.86,0L89.32,64.38a.6.6,0,0,0,0,.86L99.57,75.5a.62.62,0,0,0,.86,0l10.25-10.26A.6.6,0,0,0,110.68,64.38Zm-44,14.2-8.87-8.87a.61.61,0,0,0-.85,0l-8.87,8.87a.6.6,0,0,0,0,.86L57,88.31a.61.61,0,0,0,.85,0l8.87-8.87A.6.6,0,0,0,66.7,78.58Zm28.4,0-8.87-8.87a.62.62,0,0,0-.86,0L76.5,78.58a.62.62,0,0,0,0,.86l8.87,8.87a.62.62,0,0,0,.86,0l8.87-8.87A.62.62,0,0,0,95.1,78.58Zm28.4,0-8.87-8.87a.62.62,0,0,0-.86,0l-8.87,8.87a.62.62,0,0,0,0,.86l8.87,8.87a.62.62,0,0,0,.86,0l8.87-8.87A.62.62,0,0,0,123.5,78.58ZM51.11,92.78,43.63,85.3a.61.61,0,0,0-.85,0L35.3,92.78a.6.6,0,0,0,0,.86l7.48,7.48a.61.61,0,0,0,.85,0l7.48-7.48A.6.6,0,0,0,51.11,92.78Zm28.4,0L72,85.3a.61.61,0,0,0-.85,0l-7.49,7.48a.62.62,0,0,0,0,.86l7.49,7.48a.61.61,0,0,0,.85,0l7.48-7.48A.6.6,0,0,0,79.51,92.78Zm28.4,0-7.48-7.48a.62.62,0,0,0-.86,0l-7.48,7.48a.62.62,0,0,0,0,.86l7.48,7.48a.62.62,0,0,0,.86,0l7.48-7.48A.62.62,0,0,0,107.91,92.78Zm28.4,0-7.49-7.48a.61.61,0,0,0-.85,0l-7.48,7.48a.6.6,0,0,0,0,.86l7.48,7.48a.61.61,0,0,0,.85,0l7.49-7.48A.62.62,0,0,0,136.31,92.78ZM35.52,107l-6.09-6.09a.61.61,0,0,0-.85,0L22.49,107a.6.6,0,0,0,0,.86l6.09,6.09a.61.61,0,0,0,.85,0l6.09-6.09A.6.6,0,0,0,35.52,107Zm28.4,0-6.09-6.09a.61.61,0,0,0-.85,0L50.89,107a.6.6,0,0,0,0,.86L57,113.93a.61.61,0,0,0,.85,0l6.09-6.09A.6.6,0,0,0,63.92,107Zm28.4,0-6.09-6.09a.62.62,0,0,0-.86,0L79.28,107a.62.62,0,0,0,0,.86l6.09,6.09a.62.62,0,0,0,.86,0l6.09-6.09A.62.62,0,0,0,92.32,107Zm28.4,0-6.09-6.09a.62.62,0,0,0-.86,0L107.68,107a.62.62,0,0,0,0,.86l6.09,6.09a.62.62,0,0,0,.86,0l6.09-6.09A.62.62,0,0,0,120.72,107Zm28.39,0L143,100.89a.61.61,0,0,0-.85,0L136.08,107a.6.6,0,0,0,0,.86l6.09,6.09a.61.61,0,0,0,.85,0l6.09-6.09A.6.6,0,0,0,149.11,107ZM19.94,121.18l-4.71-4.7a.59.59,0,0,0-.85,0l-4.7,4.7a.59.59,0,0,0,0,.85l4.7,4.71a.61.61,0,0,0,.85,0L19.94,122A.61.61,0,0,0,19.94,121.18Zm28.39,0-4.7-4.7a.59.59,0,0,0-.85,0l-4.71,4.7a.61.61,0,0,0,0,.85l4.71,4.71a.61.61,0,0,0,.85,0l4.7-4.71A.59.59,0,0,0,48.33,121.18Zm28.4,0-4.7-4.7a.6.6,0,0,0-.86,0l-4.7,4.7a.62.62,0,0,0,0,.86l4.7,4.7a.62.62,0,0,0,.86,0l4.7-4.71A.59.59,0,0,0,76.73,121.18Zm28.4-.12-4.7-4.7a.6.6,0,0,0-.86,0l-4.7,4.7a.59.59,0,0,0,0,.85l4.7,4.71a.62.62,0,0,0,.86,0l4.7-4.71A.61.61,0,0,0,105.13,121.06Zm28.4,0-4.7-4.7a.6.6,0,0,0-.86,0l-4.7,4.7a.59.59,0,0,0,0,.85l4.7,4.71a.62.62,0,0,0,.86,0l4.7-4.71A.61.61,0,0,0,133.53,121.06Zm28.39,0-4.7-4.7a.59.59,0,0,0-.85,0l-4.7,4.7a.59.59,0,0,0,0,.85l4.7,4.71a.61.61,0,0,0,.85,0l4.7-4.71A.59.59,0,0,0,161.92,121.06ZM114.63,62.69,126.27,51a.59.59,0,0,0,0-.85L114.63,38.54a.6.6,0,0,0-.86,0L102.12,50.19a.61.61,0,0,0,0,.85l11.65,11.65A.62.62,0,0,0,114.63,62.69Zm14.2,12.81,10.25-10.26a.6.6,0,0,0,0-.86L128.83,54.13a.6.6,0,0,0-.86,0L117.71,64.38a.62.62,0,0,0,0,.86L128,75.5A.62.62,0,0,0,128.83,75.5ZM143,88.31l8.87-8.87a.6.6,0,0,0,0-.86L143,69.71a.61.61,0,0,0-.85,0l-8.87,8.87a.6.6,0,0,0,0,.86l8.87,8.87A.61.61,0,0,0,143,88.31Zm14.2,12.81,7.48-7.48a.6.6,0,0,0,0-.86l-7.48-7.48a.61.61,0,0,0-.85,0l-7.48,7.48a.6.6,0,0,0,0,.86l7.48,7.48A.61.61,0,0,0,157.22,101.12Zm14.2,12.81,6.09-6.09a.6.6,0,0,0,0-.86l-6.09-6.09a.61.61,0,0,0-.85,0L164.48,107a.6.6,0,0,0,0,.86l6.09,6.09A.61.61,0,0,0,171.42,113.93Zm14.2,12.69,4.7-4.71a.59.59,0,0,0,0-.85l-4.7-4.7a.59.59,0,0,0-.85,0l-4.71,4.7a.61.61,0,0,0,0,.85l4.71,4.71A.61.61,0,0,0,185.62,126.62Z" style="fill:url(#a)"/><path d="M60.84,161.64H49.21A6.65,6.65,0,0,1,42.56,155v-3.32A6.65,6.65,0,0,1,49.21,145H60.84a6.66,6.66,0,0,1,6.65,6.65V155A6.66,6.66,0,0,1,60.84,161.64Zm-11.63-13.3a3.33,3.33,0,0,0-3.33,3.33V155a3.33,3.33,0,0,0,3.33,3.32H60.84A3.32,3.32,0,0,0,64.16,155v-3.32a3.33,3.33,0,0,0-3.32-3.33Z" style="fill:#0f0f0f"/><path d="M87.46,161.64H76.13A6.65,6.65,0,0,1,69.48,155v-9.67a.3.3,0,0,1,.3-.3H72.5a.3.3,0,0,1,.31.3V155a3.31,3.31,0,0,0,3.32,3.32H87.46a.3.3,0,0,1,.3.31v2.72A.3.3,0,0,1,87.46,161.64Z" style="fill:#0f0f0f"/><path d="M38.41,145.15l-9.27,13.24a.3.3,0,0,1-.49,0l-9.27-13.24a.31.31,0,0,0-.25-.13H15.81a.3.3,0,0,0-.24.47l11.21,16a.29.29,0,0,0,.24.13h3.75a.29.29,0,0,0,.24-.13l11.22-16A.3.3,0,0,0,42,145H38.66A.31.31,0,0,0,38.41,145.15Z" style="fill:#0f0f0f"/><path d="M177.84,161.64H166.21a6.65,6.65,0,0,1-6.65-6.65v-3.32a6.65,6.65,0,0,1,6.65-6.65h11.63a6.65,6.65,0,0,1,6.65,6.65V155A6.65,6.65,0,0,1,177.84,161.64Zm-11.63-13.3a3.34,3.34,0,0,0-3.33,3.33V155a3.33,3.33,0,0,0,3.33,3.32h11.63a3.33,3.33,0,0,0,3.33-3.32v-3.32a3.34,3.34,0,0,0-3.33-3.33Z" style="fill:#0f0f0f"/><path d="M109.4,161.64h-13A6.65,6.65,0,0,1,89.76,155v-3.32A6.64,6.64,0,0,1,96.41,145h13a.29.29,0,0,1,.3.3V148a.29.29,0,0,1-.3.3h-13a3.33,3.33,0,0,0-3.33,3.33V155a3.32,3.32,0,0,0,3.33,3.32h13a.3.3,0,0,1,.3.31v2.72A.3.3,0,0,1,109.4,161.64Z" style="fill:#0f0f0f"/><path d="M127,145h-8.31a6.64,6.64,0,0,0-6.65,6.65v9.67a.3.3,0,0,0,.3.3h2.72a.3.3,0,0,0,.3-.3v-6.05a.31.31,0,0,1,.3-.3H130a.31.31,0,0,1,.3.3v6.05a.3.3,0,0,0,.3.3h2.72a.3.3,0,0,0,.3-.3v-9.67A6.64,6.64,0,0,0,127,145Zm-11.32,6.65a.3.3,0,0,1-.3-.32,3.33,3.33,0,0,1,3.31-3H127a3.32,3.32,0,0,1,3.3,3,.3.3,0,0,1-.3.32Z" style="fill:#0f0f0f"/><path d="M154.24,145.32V157.2a.3.3,0,0,1-.5.22L140.18,145.1a.32.32,0,0,0-.2-.08h-3.72a.3.3,0,0,0-.3.3v16a.31.31,0,0,0,.3.3H139a.3.3,0,0,0,.3-.3V149.46a.3.3,0,0,1,.51-.22l13.56,12.32a.28.28,0,0,0,.2.08h3.71a.31.31,0,0,0,.31-.3v-16a.3.3,0,0,0-.31-.3h-2.72A.3.3,0,0,0,154.24,145.32Z" style="fill:#0f0f0f"/></svg>